<mxfile host="app.diagrams.net" agent="Mozilla/5.0 (Windows NT 10.0; Win64; x64) AppleWebKit/537.36 (KHTML, like Gecko) Chrome/134.0.0.0 Safari/537.36" version="26.1.1">
  <diagram id="C5RBs43oDa-KdzZeNtuy" name="Page-1">
    <mxGraphModel dx="1793" dy="2092" grid="1" gridSize="10" guides="1" tooltips="1" connect="1" arrows="1" fold="1" page="1" pageScale="1" pageWidth="827" pageHeight="1169" math="0" shadow="0">
      <root>
        <mxCell id="WIyWlLk6GJQsqaUBKTNV-0" />
        <mxCell id="WIyWlLk6GJQsqaUBKTNV-1" parent="WIyWlLk6GJQsqaUBKTNV-0" />
        <mxCell id="8I4E7v-2J1x1jOvSFPSF-0" value="Engine" style="swimlane;fontStyle=1;align=center;verticalAlign=top;childLayout=stackLayout;horizontal=1;startSize=26;horizontalStack=0;resizeParent=1;resizeParentMax=0;resizeLast=0;collapsible=1;marginBottom=0;whiteSpace=wrap;html=1;" vertex="1" parent="WIyWlLk6GJQsqaUBKTNV-1">
          <mxGeometry x="676" y="-330" width="160" height="164" as="geometry" />
        </mxCell>
        <mxCell id="8I4E7v-2J1x1jOvSFPSF-1" value="# mochila: Mochila" style="text;strokeColor=none;fillColor=none;align=left;verticalAlign=top;spacingLeft=4;spacingRight=4;overflow=hidden;rotatable=0;points=[[0,0.5],[1,0.5]];portConstraint=eastwest;whiteSpace=wrap;html=1;" vertex="1" parent="8I4E7v-2J1x1jOvSFPSF-0">
          <mxGeometry y="26" width="160" height="26" as="geometry" />
        </mxCell>
        <mxCell id="8I4E7v-2J1x1jOvSFPSF-5" value="# salaAtual: Sala" style="text;strokeColor=none;fillColor=none;align=left;verticalAlign=top;spacingLeft=4;spacingRight=4;overflow=hidden;rotatable=0;points=[[0,0.5],[1,0.5]];portConstraint=eastwest;whiteSpace=wrap;html=1;" vertex="1" parent="8I4E7v-2J1x1jOvSFPSF-0">
          <mxGeometry y="52" width="160" height="26" as="geometry" />
        </mxCell>
        <mxCell id="8I4E7v-2J1x1jOvSFPSF-6" value="# fim: Boolean" style="text;strokeColor=none;fillColor=none;align=left;verticalAlign=top;spacingLeft=4;spacingRight=4;overflow=hidden;rotatable=0;points=[[0,0.5],[1,0.5]];portConstraint=eastwest;whiteSpace=wrap;html=1;" vertex="1" parent="8I4E7v-2J1x1jOvSFPSF-0">
          <mxGeometry y="78" width="160" height="26" as="geometry" />
        </mxCell>
        <mxCell id="8I4E7v-2J1x1jOvSFPSF-2" value="" style="line;strokeWidth=1;fillColor=none;align=left;verticalAlign=middle;spacingTop=-1;spacingLeft=3;spacingRight=3;rotatable=0;labelPosition=right;points=[];portConstraint=eastwest;strokeColor=inherit;" vertex="1" parent="8I4E7v-2J1x1jOvSFPSF-0">
          <mxGeometry y="104" width="160" height="8" as="geometry" />
        </mxCell>
        <mxCell id="8I4E7v-2J1x1jOvSFPSF-3" value="+ criarCenario(): void" style="text;strokeColor=none;fillColor=none;align=left;verticalAlign=top;spacingLeft=4;spacingRight=4;overflow=hidden;rotatable=0;points=[[0,0.5],[1,0.5]];portConstraint=eastwest;whiteSpace=wrap;html=1;" vertex="1" parent="8I4E7v-2J1x1jOvSFPSF-0">
          <mxGeometry y="112" width="160" height="26" as="geometry" />
        </mxCell>
        <mxCell id="8I4E7v-2J1x1jOvSFPSF-7" value="+ jogar(): void" style="text;strokeColor=none;fillColor=none;align=left;verticalAlign=top;spacingLeft=4;spacingRight=4;overflow=hidden;rotatable=0;points=[[0,0.5],[1,0.5]];portConstraint=eastwest;whiteSpace=wrap;html=1;" vertex="1" parent="8I4E7v-2J1x1jOvSFPSF-0">
          <mxGeometry y="138" width="160" height="26" as="geometry" />
        </mxCell>
        <mxCell id="8I4E7v-2J1x1jOvSFPSF-8" value="Mochila" style="swimlane;fontStyle=1;align=center;verticalAlign=top;childLayout=stackLayout;horizontal=1;startSize=26;horizontalStack=0;resizeParent=1;resizeParentMax=0;resizeLast=0;collapsible=1;marginBottom=0;whiteSpace=wrap;html=1;" vertex="1" parent="WIyWlLk6GJQsqaUBKTNV-1">
          <mxGeometry x="387" y="-340" width="160" height="164" as="geometry" />
        </mxCell>
        <mxCell id="8I4E7v-2J1x1jOvSFPSF-9" value="# itens: Item&lt;span style=&quot;background-color: transparent; color: light-dark(rgb(0, 0, 0), rgb(255, 255, 255));&quot;&gt;[]&lt;/span&gt;" style="text;strokeColor=none;fillColor=none;align=left;verticalAlign=top;spacingLeft=4;spacingRight=4;overflow=hidden;rotatable=0;points=[[0,0.5],[1,0.5]];portConstraint=eastwest;whiteSpace=wrap;html=1;" vertex="1" parent="8I4E7v-2J1x1jOvSFPSF-8">
          <mxGeometry y="26" width="160" height="26" as="geometry" />
        </mxCell>
        <mxCell id="8I4E7v-2J1x1jOvSFPSF-12" value="" style="line;strokeWidth=1;fillColor=none;align=left;verticalAlign=middle;spacingTop=-1;spacingLeft=3;spacingRight=3;rotatable=0;labelPosition=right;points=[];portConstraint=eastwest;strokeColor=inherit;" vertex="1" parent="8I4E7v-2J1x1jOvSFPSF-8">
          <mxGeometry y="52" width="160" height="8" as="geometry" />
        </mxCell>
        <mxCell id="8I4E7v-2J1x1jOvSFPSF-13" value="+ guardar(Item): void" style="text;strokeColor=none;fillColor=none;align=left;verticalAlign=top;spacingLeft=4;spacingRight=4;overflow=hidden;rotatable=0;points=[[0,0.5],[1,0.5]];portConstraint=eastwest;whiteSpace=wrap;html=1;" vertex="1" parent="8I4E7v-2J1x1jOvSFPSF-8">
          <mxGeometry y="60" width="160" height="26" as="geometry" />
        </mxCell>
        <mxCell id="8I4E7v-2J1x1jOvSFPSF-15" value="+ remover(Item): void" style="text;strokeColor=none;fillColor=none;align=left;verticalAlign=top;spacingLeft=4;spacingRight=4;overflow=hidden;rotatable=0;points=[[0,0.5],[1,0.5]];portConstraint=eastwest;whiteSpace=wrap;html=1;" vertex="1" parent="8I4E7v-2J1x1jOvSFPSF-8">
          <mxGeometry y="86" width="160" height="26" as="geometry" />
        </mxCell>
        <mxCell id="8I4E7v-2J1x1jOvSFPSF-16" value="+ pegar(String): Item" style="text;strokeColor=none;fillColor=none;align=left;verticalAlign=top;spacingLeft=4;spacingRight=4;overflow=hidden;rotatable=0;points=[[0,0.5],[1,0.5]];portConstraint=eastwest;whiteSpace=wrap;html=1;" vertex="1" parent="8I4E7v-2J1x1jOvSFPSF-8">
          <mxGeometry y="112" width="160" height="26" as="geometry" />
        </mxCell>
        <mxCell id="8I4E7v-2J1x1jOvSFPSF-14" value="+ inventario(): String" style="text;strokeColor=none;fillColor=none;align=left;verticalAlign=top;spacingLeft=4;spacingRight=4;overflow=hidden;rotatable=0;points=[[0,0.5],[1,0.5]];portConstraint=eastwest;whiteSpace=wrap;html=1;" vertex="1" parent="8I4E7v-2J1x1jOvSFPSF-8">
          <mxGeometry y="138" width="160" height="26" as="geometry" />
        </mxCell>
        <mxCell id="8I4E7v-2J1x1jOvSFPSF-24" value="Sala" style="swimlane;fontStyle=1;align=center;verticalAlign=top;childLayout=stackLayout;horizontal=1;startSize=26;horizontalStack=0;resizeParent=1;resizeParentMax=0;resizeLast=0;collapsible=1;marginBottom=0;whiteSpace=wrap;html=1;" vertex="1" parent="WIyWlLk6GJQsqaUBKTNV-1">
          <mxGeometry x="1026" y="-250" width="190" height="372" as="geometry" />
        </mxCell>
        <mxCell id="8I4E7v-2J1x1jOvSFPSF-25" value="# nome: String" style="text;strokeColor=none;fillColor=none;align=left;verticalAlign=top;spacingLeft=4;spacingRight=4;overflow=hidden;rotatable=0;points=[[0,0.5],[1,0.5]];portConstraint=eastwest;whiteSpace=wrap;html=1;" vertex="1" parent="8I4E7v-2J1x1jOvSFPSF-24">
          <mxGeometry y="26" width="190" height="26" as="geometry" />
        </mxCell>
        <mxCell id="8I4E7v-2J1x1jOvSFPSF-31" value="# objetos: Map&amp;lt;string, Objeto&amp;gt;" style="text;strokeColor=none;fillColor=none;align=left;verticalAlign=top;spacingLeft=4;spacingRight=4;overflow=hidden;rotatable=0;points=[[0,0.5],[1,0.5]];portConstraint=eastwest;whiteSpace=wrap;html=1;" vertex="1" parent="8I4E7v-2J1x1jOvSFPSF-24">
          <mxGeometry y="52" width="190" height="26" as="geometry" />
        </mxCell>
        <mxCell id="8I4E7v-2J1x1jOvSFPSF-32" value="# itens: Map&amp;lt;string, Item&amp;gt;" style="text;strokeColor=none;fillColor=none;align=left;verticalAlign=top;spacingLeft=4;spacingRight=4;overflow=hidden;rotatable=0;points=[[0,0.5],[1,0.5]];portConstraint=eastwest;whiteSpace=wrap;html=1;" vertex="1" parent="8I4E7v-2J1x1jOvSFPSF-24">
          <mxGeometry y="78" width="190" height="26" as="geometry" />
        </mxCell>
        <mxCell id="8I4E7v-2J1x1jOvSFPSF-33" value="# portas: Map&amp;lt;string, Sala&amp;gt;" style="text;strokeColor=none;fillColor=none;align=left;verticalAlign=top;spacingLeft=4;spacingRight=4;overflow=hidden;rotatable=0;points=[[0,0.5],[1,0.5]];portConstraint=eastwest;whiteSpace=wrap;html=1;" vertex="1" parent="8I4E7v-2J1x1jOvSFPSF-24">
          <mxGeometry y="104" width="190" height="26" as="geometry" />
        </mxCell>
        <mxCell id="8I4E7v-2J1x1jOvSFPSF-26" value="" style="line;strokeWidth=1;fillColor=none;align=left;verticalAlign=middle;spacingTop=-1;spacingLeft=3;spacingRight=3;rotatable=0;labelPosition=right;points=[];portConstraint=eastwest;strokeColor=inherit;" vertex="1" parent="8I4E7v-2J1x1jOvSFPSF-24">
          <mxGeometry y="130" width="190" height="8" as="geometry" />
        </mxCell>
        <mxCell id="8I4E7v-2J1x1jOvSFPSF-27" value="+ adicionarPorta(Sala): void" style="text;strokeColor=none;fillColor=none;align=left;verticalAlign=top;spacingLeft=4;spacingRight=4;overflow=hidden;rotatable=0;points=[[0,0.5],[1,0.5]];portConstraint=eastwest;whiteSpace=wrap;html=1;" vertex="1" parent="8I4E7v-2J1x1jOvSFPSF-24">
          <mxGeometry y="138" width="190" height="26" as="geometry" />
        </mxCell>
        <mxCell id="8I4E7v-2J1x1jOvSFPSF-28" value="+ objetosDisponiveis(): String" style="text;strokeColor=none;fillColor=none;align=left;verticalAlign=top;spacingLeft=4;spacingRight=4;overflow=hidden;rotatable=0;points=[[0,0.5],[1,0.5]];portConstraint=eastwest;whiteSpace=wrap;html=1;" vertex="1" parent="8I4E7v-2J1x1jOvSFPSF-24">
          <mxGeometry y="164" width="190" height="26" as="geometry" />
        </mxCell>
        <mxCell id="8I4E7v-2J1x1jOvSFPSF-29" value="+ itensDisponiveis(): String" style="text;strokeColor=none;fillColor=none;align=left;verticalAlign=top;spacingLeft=4;spacingRight=4;overflow=hidden;rotatable=0;points=[[0,0.5],[1,0.5]];portConstraint=eastwest;whiteSpace=wrap;html=1;" vertex="1" parent="8I4E7v-2J1x1jOvSFPSF-24">
          <mxGeometry y="190" width="190" height="26" as="geometry" />
        </mxCell>
        <mxCell id="8I4E7v-2J1x1jOvSFPSF-30" value="+ portasDisponiveis(): String" style="text;strokeColor=none;fillColor=none;align=left;verticalAlign=top;spacingLeft=4;spacingRight=4;overflow=hidden;rotatable=0;points=[[0,0.5],[1,0.5]];portConstraint=eastwest;whiteSpace=wrap;html=1;" vertex="1" parent="8I4E7v-2J1x1jOvSFPSF-24">
          <mxGeometry y="216" width="190" height="26" as="geometry" />
        </mxCell>
        <mxCell id="8I4E7v-2J1x1jOvSFPSF-34" value="+ pegar(String): Item" style="text;strokeColor=none;fillColor=none;align=left;verticalAlign=top;spacingLeft=4;spacingRight=4;overflow=hidden;rotatable=0;points=[[0,0.5],[1,0.5]];portConstraint=eastwest;whiteSpace=wrap;html=1;" vertex="1" parent="8I4E7v-2J1x1jOvSFPSF-24">
          <mxGeometry y="242" width="190" height="26" as="geometry" />
        </mxCell>
        <mxCell id="8I4E7v-2J1x1jOvSFPSF-35" value="+ ir(String): Sala" style="text;strokeColor=none;fillColor=none;align=left;verticalAlign=top;spacingLeft=4;spacingRight=4;overflow=hidden;rotatable=0;points=[[0,0.5],[1,0.5]];portConstraint=eastwest;whiteSpace=wrap;html=1;" vertex="1" parent="8I4E7v-2J1x1jOvSFPSF-24">
          <mxGeometry y="268" width="190" height="26" as="geometry" />
        </mxCell>
        <mxCell id="8I4E7v-2J1x1jOvSFPSF-48" value="+ textoDescricao(): String" style="text;strokeColor=none;fillColor=none;align=left;verticalAlign=top;spacingLeft=4;spacingRight=4;overflow=hidden;rotatable=0;points=[[0,0.5],[1,0.5]];portConstraint=eastwest;whiteSpace=wrap;html=1;" vertex="1" parent="8I4E7v-2J1x1jOvSFPSF-24">
          <mxGeometry y="294" width="190" height="26" as="geometry" />
        </mxCell>
        <mxCell id="8I4E7v-2J1x1jOvSFPSF-62" value="+ usar(item, nomeObjeto): Array" style="text;strokeColor=none;fillColor=none;align=left;verticalAlign=top;spacingLeft=4;spacingRight=4;overflow=hidden;rotatable=0;points=[[0,0.5],[1,0.5]];portConstraint=eastwest;whiteSpace=wrap;html=1;" vertex="1" parent="8I4E7v-2J1x1jOvSFPSF-24">
          <mxGeometry y="320" width="190" height="26" as="geometry" />
        </mxCell>
        <mxCell id="8I4E7v-2J1x1jOvSFPSF-63" value="+ inspecionar(nomeObjeto):&amp;nbsp; void" style="text;strokeColor=none;fillColor=none;align=left;verticalAlign=top;spacingLeft=4;spacingRight=4;overflow=hidden;rotatable=0;points=[[0,0.5],[1,0.5]];portConstraint=eastwest;whiteSpace=wrap;html=1;" vertex="1" parent="8I4E7v-2J1x1jOvSFPSF-24">
          <mxGeometry y="346" width="190" height="26" as="geometry" />
        </mxCell>
        <mxCell id="8I4E7v-2J1x1jOvSFPSF-64" value="Item" style="swimlane;fontStyle=1;align=center;verticalAlign=top;childLayout=stackLayout;horizontal=1;startSize=26;horizontalStack=0;resizeParent=1;resizeParentMax=0;resizeLast=0;collapsible=1;marginBottom=0;whiteSpace=wrap;html=1;" vertex="1" parent="WIyWlLk6GJQsqaUBKTNV-1">
          <mxGeometry x="290" y="-80" width="160" height="60" as="geometry" />
        </mxCell>
        <mxCell id="8I4E7v-2J1x1jOvSFPSF-65" value="# nome: String" style="text;strokeColor=none;fillColor=none;align=left;verticalAlign=top;spacingLeft=4;spacingRight=4;overflow=hidden;rotatable=0;points=[[0,0.5],[1,0.5]];portConstraint=eastwest;whiteSpace=wrap;html=1;" vertex="1" parent="8I4E7v-2J1x1jOvSFPSF-64">
          <mxGeometry y="26" width="160" height="26" as="geometry" />
        </mxCell>
        <mxCell id="8I4E7v-2J1x1jOvSFPSF-66" value="" style="line;strokeWidth=1;fillColor=none;align=left;verticalAlign=middle;spacingTop=-1;spacingLeft=3;spacingRight=3;rotatable=0;labelPosition=right;points=[];portConstraint=eastwest;strokeColor=inherit;" vertex="1" parent="8I4E7v-2J1x1jOvSFPSF-64">
          <mxGeometry y="52" width="160" height="8" as="geometry" />
        </mxCell>
        <mxCell id="8I4E7v-2J1x1jOvSFPSF-68" value="JogoDemo" style="swimlane;fontStyle=1;align=center;verticalAlign=top;childLayout=stackLayout;horizontal=1;startSize=26;horizontalStack=0;resizeParent=1;resizeParentMax=0;resizeLast=0;collapsible=1;marginBottom=0;whiteSpace=wrap;html=1;" vertex="1" parent="WIyWlLk6GJQsqaUBKTNV-1">
          <mxGeometry x="670" y="-430" width="160" height="34" as="geometry" />
        </mxCell>
        <mxCell id="8I4E7v-2J1x1jOvSFPSF-72" value="" style="line;strokeWidth=1;fillColor=none;align=left;verticalAlign=middle;spacingTop=-1;spacingLeft=3;spacingRight=3;rotatable=0;labelPosition=right;points=[];portConstraint=eastwest;strokeColor=inherit;" vertex="1" parent="8I4E7v-2J1x1jOvSFPSF-68">
          <mxGeometry y="26" width="160" height="8" as="geometry" />
        </mxCell>
        <mxCell id="8I4E7v-2J1x1jOvSFPSF-80" value="Extends" style="endArrow=block;endSize=16;endFill=0;html=1;rounded=0;" edge="1" parent="WIyWlLk6GJQsqaUBKTNV-1" target="8I4E7v-2J1x1jOvSFPSF-0">
          <mxGeometry width="160" relative="1" as="geometry">
            <mxPoint x="776" y="-390" as="sourcePoint" />
            <mxPoint x="1056" y="-240" as="targetPoint" />
          </mxGeometry>
        </mxCell>
        <mxCell id="8I4E7v-2J1x1jOvSFPSF-81" value="ChaveGuardaRoupa" style="swimlane;fontStyle=1;align=center;verticalAlign=top;childLayout=stackLayout;horizontal=1;startSize=26;horizontalStack=0;resizeParent=1;resizeParentMax=0;resizeLast=0;collapsible=1;marginBottom=0;whiteSpace=wrap;html=1;" vertex="1" parent="WIyWlLk6GJQsqaUBKTNV-1">
          <mxGeometry x="170" y="50" width="120" height="34" as="geometry" />
        </mxCell>
        <mxCell id="8I4E7v-2J1x1jOvSFPSF-83" value="" style="line;strokeWidth=1;fillColor=none;align=left;verticalAlign=middle;spacingTop=-1;spacingLeft=3;spacingRight=3;rotatable=0;labelPosition=right;points=[];portConstraint=eastwest;strokeColor=inherit;" vertex="1" parent="8I4E7v-2J1x1jOvSFPSF-81">
          <mxGeometry y="26" width="120" height="8" as="geometry" />
        </mxCell>
        <mxCell id="8I4E7v-2J1x1jOvSFPSF-86" value="Extends" style="endArrow=block;endSize=16;endFill=0;html=1;rounded=0;exitX=0.567;exitY=-0.067;exitDx=0;exitDy=0;exitPerimeter=0;" edge="1" parent="WIyWlLk6GJQsqaUBKTNV-1" source="8I4E7v-2J1x1jOvSFPSF-81" target="8I4E7v-2J1x1jOvSFPSF-64">
          <mxGeometry width="160" relative="1" as="geometry">
            <mxPoint x="270" y="70" as="sourcePoint" />
            <mxPoint x="430" y="70" as="targetPoint" />
          </mxGeometry>
        </mxCell>
        <mxCell id="8I4E7v-2J1x1jOvSFPSF-87" value="ChaveGaveta" style="swimlane;fontStyle=1;align=center;verticalAlign=top;childLayout=stackLayout;horizontal=1;startSize=26;horizontalStack=0;resizeParent=1;resizeParentMax=0;resizeLast=0;collapsible=1;marginBottom=0;whiteSpace=wrap;html=1;" vertex="1" parent="WIyWlLk6GJQsqaUBKTNV-1">
          <mxGeometry x="300" y="50" width="90" height="34" as="geometry" />
        </mxCell>
        <mxCell id="8I4E7v-2J1x1jOvSFPSF-88" value="" style="line;strokeWidth=1;fillColor=none;align=left;verticalAlign=middle;spacingTop=-1;spacingLeft=3;spacingRight=3;rotatable=0;labelPosition=right;points=[];portConstraint=eastwest;strokeColor=inherit;" vertex="1" parent="8I4E7v-2J1x1jOvSFPSF-87">
          <mxGeometry y="26" width="90" height="8" as="geometry" />
        </mxCell>
        <mxCell id="8I4E7v-2J1x1jOvSFPSF-89" value="SacheGato" style="swimlane;fontStyle=1;align=center;verticalAlign=top;childLayout=stackLayout;horizontal=1;startSize=26;horizontalStack=0;resizeParent=1;resizeParentMax=0;resizeLast=0;collapsible=1;marginBottom=0;whiteSpace=wrap;html=1;" vertex="1" parent="WIyWlLk6GJQsqaUBKTNV-1">
          <mxGeometry x="404" y="50" width="80" height="34" as="geometry" />
        </mxCell>
        <mxCell id="8I4E7v-2J1x1jOvSFPSF-90" value="" style="line;strokeWidth=1;fillColor=none;align=left;verticalAlign=middle;spacingTop=-1;spacingLeft=3;spacingRight=3;rotatable=0;labelPosition=right;points=[];portConstraint=eastwest;strokeColor=inherit;" vertex="1" parent="8I4E7v-2J1x1jOvSFPSF-89">
          <mxGeometry y="26" width="80" height="8" as="geometry" />
        </mxCell>
        <mxCell id="8I4E7v-2J1x1jOvSFPSF-91" value="Extends" style="endArrow=block;endSize=16;endFill=0;html=1;rounded=0;exitX=0.383;exitY=0.036;exitDx=0;exitDy=0;exitPerimeter=0;" edge="1" parent="WIyWlLk6GJQsqaUBKTNV-1" source="8I4E7v-2J1x1jOvSFPSF-89" target="8I4E7v-2J1x1jOvSFPSF-64">
          <mxGeometry width="160" relative="1" as="geometry">
            <mxPoint x="440" y="-100" as="sourcePoint" />
            <mxPoint x="600" y="-100" as="targetPoint" />
          </mxGeometry>
        </mxCell>
        <mxCell id="8I4E7v-2J1x1jOvSFPSF-92" value="Extends" style="endArrow=block;endSize=16;endFill=0;html=1;rounded=0;" edge="1" parent="WIyWlLk6GJQsqaUBKTNV-1" source="8I4E7v-2J1x1jOvSFPSF-87" target="8I4E7v-2J1x1jOvSFPSF-64">
          <mxGeometry width="160" relative="1" as="geometry">
            <mxPoint x="440" y="-100" as="sourcePoint" />
            <mxPoint x="600" y="-100" as="targetPoint" />
          </mxGeometry>
        </mxCell>
        <mxCell id="8I4E7v-2J1x1jOvSFPSF-93" value="Objeto" style="swimlane;fontStyle=1;align=center;verticalAlign=top;childLayout=stackLayout;horizontal=1;startSize=26;horizontalStack=0;resizeParent=1;resizeParentMax=0;resizeLast=0;collapsible=1;marginBottom=0;whiteSpace=wrap;html=1;" vertex="1" parent="WIyWlLk6GJQsqaUBKTNV-1">
          <mxGeometry x="617" y="70" width="160" height="60" as="geometry" />
        </mxCell>
        <mxCell id="8I4E7v-2J1x1jOvSFPSF-94" value="# nome: String" style="text;strokeColor=none;fillColor=none;align=left;verticalAlign=top;spacingLeft=4;spacingRight=4;overflow=hidden;rotatable=0;points=[[0,0.5],[1,0.5]];portConstraint=eastwest;whiteSpace=wrap;html=1;" vertex="1" parent="8I4E7v-2J1x1jOvSFPSF-93">
          <mxGeometry y="26" width="160" height="26" as="geometry" />
        </mxCell>
        <mxCell id="8I4E7v-2J1x1jOvSFPSF-95" value="" style="line;strokeWidth=1;fillColor=none;align=left;verticalAlign=middle;spacingTop=-1;spacingLeft=3;spacingRight=3;rotatable=0;labelPosition=right;points=[];portConstraint=eastwest;strokeColor=inherit;" vertex="1" parent="8I4E7v-2J1x1jOvSFPSF-93">
          <mxGeometry y="52" width="160" height="8" as="geometry" />
        </mxCell>
        <mxCell id="8I4E7v-2J1x1jOvSFPSF-96" value="GuardaRoupa" style="swimlane;fontStyle=1;align=center;verticalAlign=top;childLayout=stackLayout;horizontal=1;startSize=26;horizontalStack=0;resizeParent=1;resizeParentMax=0;resizeLast=0;collapsible=1;marginBottom=0;whiteSpace=wrap;html=1;" vertex="1" parent="WIyWlLk6GJQsqaUBKTNV-1">
          <mxGeometry x="537" y="200" width="100" height="34" as="geometry" />
        </mxCell>
        <mxCell id="8I4E7v-2J1x1jOvSFPSF-97" value="" style="line;strokeWidth=1;fillColor=none;align=left;verticalAlign=middle;spacingTop=-1;spacingLeft=3;spacingRight=3;rotatable=0;labelPosition=right;points=[];portConstraint=eastwest;strokeColor=inherit;" vertex="1" parent="8I4E7v-2J1x1jOvSFPSF-96">
          <mxGeometry y="26" width="100" height="8" as="geometry" />
        </mxCell>
        <mxCell id="8I4E7v-2J1x1jOvSFPSF-98" value="Extends" style="endArrow=block;endSize=16;endFill=0;html=1;rounded=0;exitX=0.567;exitY=-0.067;exitDx=0;exitDy=0;exitPerimeter=0;" edge="1" parent="WIyWlLk6GJQsqaUBKTNV-1" source="8I4E7v-2J1x1jOvSFPSF-96" target="8I4E7v-2J1x1jOvSFPSF-93">
          <mxGeometry width="160" relative="1" as="geometry">
            <mxPoint x="597" y="220" as="sourcePoint" />
            <mxPoint x="757" y="220" as="targetPoint" />
          </mxGeometry>
        </mxCell>
        <mxCell id="8I4E7v-2J1x1jOvSFPSF-99" value="PortaChaves" style="swimlane;fontStyle=1;align=center;verticalAlign=top;childLayout=stackLayout;horizontal=1;startSize=26;horizontalStack=0;resizeParent=1;resizeParentMax=0;resizeLast=0;collapsible=1;marginBottom=0;whiteSpace=wrap;html=1;" vertex="1" parent="WIyWlLk6GJQsqaUBKTNV-1">
          <mxGeometry x="667" y="200" width="90" height="34" as="geometry" />
        </mxCell>
        <mxCell id="8I4E7v-2J1x1jOvSFPSF-100" value="" style="line;strokeWidth=1;fillColor=none;align=left;verticalAlign=middle;spacingTop=-1;spacingLeft=3;spacingRight=3;rotatable=0;labelPosition=right;points=[];portConstraint=eastwest;strokeColor=inherit;" vertex="1" parent="8I4E7v-2J1x1jOvSFPSF-99">
          <mxGeometry y="26" width="90" height="8" as="geometry" />
        </mxCell>
        <mxCell id="8I4E7v-2J1x1jOvSFPSF-101" value="Mesa" style="swimlane;fontStyle=1;align=center;verticalAlign=top;childLayout=stackLayout;horizontal=1;startSize=26;horizontalStack=0;resizeParent=1;resizeParentMax=0;resizeLast=0;collapsible=1;marginBottom=0;whiteSpace=wrap;html=1;" vertex="1" parent="WIyWlLk6GJQsqaUBKTNV-1">
          <mxGeometry x="767" y="200" width="60" height="34" as="geometry" />
        </mxCell>
        <mxCell id="8I4E7v-2J1x1jOvSFPSF-102" value="" style="line;strokeWidth=1;fillColor=none;align=left;verticalAlign=middle;spacingTop=-1;spacingLeft=3;spacingRight=3;rotatable=0;labelPosition=right;points=[];portConstraint=eastwest;strokeColor=inherit;" vertex="1" parent="8I4E7v-2J1x1jOvSFPSF-101">
          <mxGeometry y="26" width="60" height="8" as="geometry" />
        </mxCell>
        <mxCell id="8I4E7v-2J1x1jOvSFPSF-103" value="Extends" style="endArrow=block;endSize=16;endFill=0;html=1;rounded=0;exitX=0.383;exitY=0.036;exitDx=0;exitDy=0;exitPerimeter=0;" edge="1" parent="WIyWlLk6GJQsqaUBKTNV-1" source="8I4E7v-2J1x1jOvSFPSF-101" target="8I4E7v-2J1x1jOvSFPSF-93">
          <mxGeometry width="160" relative="1" as="geometry">
            <mxPoint x="767" y="50" as="sourcePoint" />
            <mxPoint x="927" y="50" as="targetPoint" />
          </mxGeometry>
        </mxCell>
        <mxCell id="8I4E7v-2J1x1jOvSFPSF-104" value="Extends" style="endArrow=block;endSize=16;endFill=0;html=1;rounded=0;" edge="1" parent="WIyWlLk6GJQsqaUBKTNV-1" source="8I4E7v-2J1x1jOvSFPSF-99" target="8I4E7v-2J1x1jOvSFPSF-93">
          <mxGeometry width="160" relative="1" as="geometry">
            <mxPoint x="767" y="50" as="sourcePoint" />
            <mxPoint x="927" y="50" as="targetPoint" />
          </mxGeometry>
        </mxCell>
        <mxCell id="8I4E7v-2J1x1jOvSFPSF-105" value="ArmarioBanheiro" style="swimlane;fontStyle=1;align=center;verticalAlign=top;childLayout=stackLayout;horizontal=1;startSize=26;horizontalStack=0;resizeParent=1;resizeParentMax=0;resizeLast=0;collapsible=1;marginBottom=0;whiteSpace=wrap;html=1;" vertex="1" parent="WIyWlLk6GJQsqaUBKTNV-1">
          <mxGeometry x="547" y="250" width="120" height="34" as="geometry" />
        </mxCell>
        <mxCell id="8I4E7v-2J1x1jOvSFPSF-106" value="" style="line;strokeWidth=1;fillColor=none;align=left;verticalAlign=middle;spacingTop=-1;spacingLeft=3;spacingRight=3;rotatable=0;labelPosition=right;points=[];portConstraint=eastwest;strokeColor=inherit;" vertex="1" parent="8I4E7v-2J1x1jOvSFPSF-105">
          <mxGeometry y="26" width="120" height="8" as="geometry" />
        </mxCell>
        <mxCell id="8I4E7v-2J1x1jOvSFPSF-107" value="Extends" style="endArrow=block;endSize=16;endFill=0;html=1;rounded=0;exitX=0.75;exitY=0;exitDx=0;exitDy=0;" edge="1" parent="WIyWlLk6GJQsqaUBKTNV-1" source="8I4E7v-2J1x1jOvSFPSF-105" target="8I4E7v-2J1x1jOvSFPSF-93">
          <mxGeometry width="160" relative="1" as="geometry">
            <mxPoint x="558" y="208" as="sourcePoint" />
            <mxPoint x="672" y="74" as="targetPoint" />
          </mxGeometry>
        </mxCell>
        <mxCell id="8I4E7v-2J1x1jOvSFPSF-108" value="QuartoPais" style="swimlane;fontStyle=1;align=center;verticalAlign=top;childLayout=stackLayout;horizontal=1;startSize=26;horizontalStack=0;resizeParent=1;resizeParentMax=0;resizeLast=0;collapsible=1;marginBottom=0;whiteSpace=wrap;html=1;" vertex="1" parent="WIyWlLk6GJQsqaUBKTNV-1">
          <mxGeometry x="890" y="190" width="70" height="34" as="geometry" />
        </mxCell>
        <mxCell id="8I4E7v-2J1x1jOvSFPSF-109" value="" style="line;strokeWidth=1;fillColor=none;align=left;verticalAlign=middle;spacingTop=-1;spacingLeft=3;spacingRight=3;rotatable=0;labelPosition=right;points=[];portConstraint=eastwest;strokeColor=inherit;" vertex="1" parent="8I4E7v-2J1x1jOvSFPSF-108">
          <mxGeometry y="26" width="70" height="8" as="geometry" />
        </mxCell>
        <mxCell id="8I4E7v-2J1x1jOvSFPSF-110" value="QuartoJogador" style="swimlane;fontStyle=1;align=center;verticalAlign=top;childLayout=stackLayout;horizontal=1;startSize=26;horizontalStack=0;resizeParent=1;resizeParentMax=0;resizeLast=0;collapsible=1;marginBottom=0;whiteSpace=wrap;html=1;" vertex="1" parent="WIyWlLk6GJQsqaUBKTNV-1">
          <mxGeometry x="970" y="190" width="100" height="34" as="geometry" />
        </mxCell>
        <mxCell id="8I4E7v-2J1x1jOvSFPSF-111" value="" style="line;strokeWidth=1;fillColor=none;align=left;verticalAlign=middle;spacingTop=-1;spacingLeft=3;spacingRight=3;rotatable=0;labelPosition=right;points=[];portConstraint=eastwest;strokeColor=inherit;" vertex="1" parent="8I4E7v-2J1x1jOvSFPSF-110">
          <mxGeometry y="26" width="100" height="8" as="geometry" />
        </mxCell>
        <mxCell id="8I4E7v-2J1x1jOvSFPSF-112" value="Jardim" style="swimlane;fontStyle=1;align=center;verticalAlign=top;childLayout=stackLayout;horizontal=1;startSize=26;horizontalStack=0;resizeParent=1;resizeParentMax=0;resizeLast=0;collapsible=1;marginBottom=0;whiteSpace=wrap;html=1;" vertex="1" parent="WIyWlLk6GJQsqaUBKTNV-1">
          <mxGeometry x="1040" y="290" width="60" height="34" as="geometry" />
        </mxCell>
        <mxCell id="8I4E7v-2J1x1jOvSFPSF-113" value="" style="line;strokeWidth=1;fillColor=none;align=left;verticalAlign=middle;spacingTop=-1;spacingLeft=3;spacingRight=3;rotatable=0;labelPosition=right;points=[];portConstraint=eastwest;strokeColor=inherit;" vertex="1" parent="8I4E7v-2J1x1jOvSFPSF-112">
          <mxGeometry y="26" width="60" height="8" as="geometry" />
        </mxCell>
        <mxCell id="8I4E7v-2J1x1jOvSFPSF-114" value="Cozinha" style="swimlane;fontStyle=1;align=center;verticalAlign=top;childLayout=stackLayout;horizontal=1;startSize=26;horizontalStack=0;resizeParent=1;resizeParentMax=0;resizeLast=0;collapsible=1;marginBottom=0;whiteSpace=wrap;html=1;" vertex="1" parent="WIyWlLk6GJQsqaUBKTNV-1">
          <mxGeometry x="1211" y="186" width="79" height="34" as="geometry" />
        </mxCell>
        <mxCell id="8I4E7v-2J1x1jOvSFPSF-115" value="" style="line;strokeWidth=1;fillColor=none;align=left;verticalAlign=middle;spacingTop=-1;spacingLeft=3;spacingRight=3;rotatable=0;labelPosition=right;points=[];portConstraint=eastwest;strokeColor=inherit;" vertex="1" parent="8I4E7v-2J1x1jOvSFPSF-114">
          <mxGeometry y="26" width="79" height="8" as="geometry" />
        </mxCell>
        <mxCell id="8I4E7v-2J1x1jOvSFPSF-116" value="Banheiro" style="swimlane;fontStyle=1;align=center;verticalAlign=top;childLayout=stackLayout;horizontal=1;startSize=26;horizontalStack=0;resizeParent=1;resizeParentMax=0;resizeLast=0;collapsible=1;marginBottom=0;whiteSpace=wrap;html=1;" vertex="1" parent="WIyWlLk6GJQsqaUBKTNV-1">
          <mxGeometry x="1090" y="186" width="70" height="34" as="geometry" />
        </mxCell>
        <mxCell id="8I4E7v-2J1x1jOvSFPSF-117" value="" style="line;strokeWidth=1;fillColor=none;align=left;verticalAlign=middle;spacingTop=-1;spacingLeft=3;spacingRight=3;rotatable=0;labelPosition=right;points=[];portConstraint=eastwest;strokeColor=inherit;" vertex="1" parent="8I4E7v-2J1x1jOvSFPSF-116">
          <mxGeometry y="26" width="70" height="8" as="geometry" />
        </mxCell>
        <mxCell id="8I4E7v-2J1x1jOvSFPSF-118" value="SalaDeEstar" style="swimlane;fontStyle=1;align=center;verticalAlign=top;childLayout=stackLayout;horizontal=1;startSize=26;horizontalStack=0;resizeParent=1;resizeParentMax=0;resizeLast=0;collapsible=1;marginBottom=0;whiteSpace=wrap;html=1;" vertex="1" parent="WIyWlLk6GJQsqaUBKTNV-1">
          <mxGeometry x="1121" y="290" width="90" height="34" as="geometry" />
        </mxCell>
        <mxCell id="8I4E7v-2J1x1jOvSFPSF-119" value="" style="line;strokeWidth=1;fillColor=none;align=left;verticalAlign=middle;spacingTop=-1;spacingLeft=3;spacingRight=3;rotatable=0;labelPosition=right;points=[];portConstraint=eastwest;strokeColor=inherit;" vertex="1" parent="8I4E7v-2J1x1jOvSFPSF-118">
          <mxGeometry y="26" width="90" height="8" as="geometry" />
        </mxCell>
        <mxCell id="8I4E7v-2J1x1jOvSFPSF-120" value="Lanterna" style="swimlane;fontStyle=1;align=center;verticalAlign=top;childLayout=stackLayout;horizontal=1;startSize=26;horizontalStack=0;resizeParent=1;resizeParentMax=0;resizeLast=0;collapsible=1;marginBottom=0;whiteSpace=wrap;html=1;" vertex="1" parent="WIyWlLk6GJQsqaUBKTNV-1">
          <mxGeometry x="500" y="50" width="60" height="34" as="geometry" />
        </mxCell>
        <mxCell id="8I4E7v-2J1x1jOvSFPSF-121" value="" style="line;strokeWidth=1;fillColor=none;align=left;verticalAlign=middle;spacingTop=-1;spacingLeft=3;spacingRight=3;rotatable=0;labelPosition=right;points=[];portConstraint=eastwest;strokeColor=inherit;" vertex="1" parent="8I4E7v-2J1x1jOvSFPSF-120">
          <mxGeometry y="26" width="60" height="8" as="geometry" />
        </mxCell>
        <mxCell id="8I4E7v-2J1x1jOvSFPSF-122" value="Extends" style="endArrow=block;endSize=16;endFill=0;html=1;rounded=0;exitX=0.5;exitY=0;exitDx=0;exitDy=0;" edge="1" parent="WIyWlLk6GJQsqaUBKTNV-1" source="8I4E7v-2J1x1jOvSFPSF-120" target="8I4E7v-2J1x1jOvSFPSF-64">
          <mxGeometry width="160" relative="1" as="geometry">
            <mxPoint x="445" y="61" as="sourcePoint" />
            <mxPoint x="399" y="-10" as="targetPoint" />
          </mxGeometry>
        </mxCell>
        <mxCell id="8I4E7v-2J1x1jOvSFPSF-123" value="Extends" style="endArrow=block;endSize=16;endFill=0;html=1;rounded=0;exitX=0.942;exitY=-0.067;exitDx=0;exitDy=0;exitPerimeter=0;" edge="1" parent="WIyWlLk6GJQsqaUBKTNV-1" source="8I4E7v-2J1x1jOvSFPSF-108" target="8I4E7v-2J1x1jOvSFPSF-24">
          <mxGeometry width="160" relative="1" as="geometry">
            <mxPoint x="360" y="-90" as="sourcePoint" />
            <mxPoint x="241" y="-160" as="targetPoint" />
          </mxGeometry>
        </mxCell>
        <mxCell id="8I4E7v-2J1x1jOvSFPSF-124" value="Extends" style="endArrow=block;endSize=16;endFill=0;html=1;rounded=0;exitX=0.75;exitY=0;exitDx=0;exitDy=0;" edge="1" parent="WIyWlLk6GJQsqaUBKTNV-1" source="8I4E7v-2J1x1jOvSFPSF-110" target="8I4E7v-2J1x1jOvSFPSF-24">
          <mxGeometry width="160" relative="1" as="geometry">
            <mxPoint x="896" y="208" as="sourcePoint" />
            <mxPoint x="1036" y="52" as="targetPoint" />
          </mxGeometry>
        </mxCell>
        <mxCell id="8I4E7v-2J1x1jOvSFPSF-125" value="Extends" style="endArrow=block;endSize=16;endFill=0;html=1;rounded=0;exitX=0.87;exitY=-0.002;exitDx=0;exitDy=0;exitPerimeter=0;" edge="1" parent="WIyWlLk6GJQsqaUBKTNV-1" source="8I4E7v-2J1x1jOvSFPSF-118" target="8I4E7v-2J1x1jOvSFPSF-24">
          <mxGeometry width="160" relative="1" as="geometry">
            <mxPoint x="906" y="218" as="sourcePoint" />
            <mxPoint x="1046" y="62" as="targetPoint" />
          </mxGeometry>
        </mxCell>
        <mxCell id="8I4E7v-2J1x1jOvSFPSF-126" value="Extends" style="endArrow=block;endSize=16;endFill=0;html=1;rounded=0;exitX=0.75;exitY=0;exitDx=0;exitDy=0;" edge="1" parent="WIyWlLk6GJQsqaUBKTNV-1" source="8I4E7v-2J1x1jOvSFPSF-116" target="8I4E7v-2J1x1jOvSFPSF-24">
          <mxGeometry width="160" relative="1" as="geometry">
            <mxPoint x="916" y="228" as="sourcePoint" />
            <mxPoint x="1056" y="72" as="targetPoint" />
          </mxGeometry>
        </mxCell>
        <mxCell id="8I4E7v-2J1x1jOvSFPSF-127" value="Extends" style="endArrow=block;endSize=16;endFill=0;html=1;rounded=0;exitX=0.25;exitY=0;exitDx=0;exitDy=0;" edge="1" parent="WIyWlLk6GJQsqaUBKTNV-1" source="8I4E7v-2J1x1jOvSFPSF-114" target="8I4E7v-2J1x1jOvSFPSF-24">
          <mxGeometry width="160" relative="1" as="geometry">
            <mxPoint x="926" y="238" as="sourcePoint" />
            <mxPoint x="1066" y="82" as="targetPoint" />
          </mxGeometry>
        </mxCell>
        <mxCell id="8I4E7v-2J1x1jOvSFPSF-129" value="Extends" style="endArrow=block;endSize=16;endFill=0;html=1;rounded=0;exitX=0.5;exitY=0;exitDx=0;exitDy=0;" edge="1" parent="WIyWlLk6GJQsqaUBKTNV-1" source="8I4E7v-2J1x1jOvSFPSF-112" target="8I4E7v-2J1x1jOvSFPSF-24">
          <mxGeometry width="160" relative="1" as="geometry">
            <mxPoint x="1005" y="210" as="sourcePoint" />
            <mxPoint x="1042" y="132" as="targetPoint" />
          </mxGeometry>
        </mxCell>
        <mxCell id="8I4E7v-2J1x1jOvSFPSF-130" value="Use" style="endArrow=open;endSize=12;dashed=1;html=1;rounded=0;entryX=0.75;entryY=0;entryDx=0;entryDy=0;" edge="1" parent="WIyWlLk6GJQsqaUBKTNV-1" source="8I4E7v-2J1x1jOvSFPSF-24" target="8I4E7v-2J1x1jOvSFPSF-93">
          <mxGeometry width="160" relative="1" as="geometry">
            <mxPoint x="600" y="70" as="sourcePoint" />
            <mxPoint x="760" y="70" as="targetPoint" />
          </mxGeometry>
        </mxCell>
        <mxCell id="8I4E7v-2J1x1jOvSFPSF-131" value="Use" style="endArrow=open;endSize=12;dashed=1;html=1;rounded=0;entryX=0.844;entryY=0.062;entryDx=0;entryDy=0;entryPerimeter=0;exitX=0;exitY=0.5;exitDx=0;exitDy=0;" edge="1" parent="WIyWlLk6GJQsqaUBKTNV-1" source="8I4E7v-2J1x1jOvSFPSF-27" target="8I4E7v-2J1x1jOvSFPSF-64">
          <mxGeometry width="160" relative="1" as="geometry">
            <mxPoint x="1181" y="-117" as="sourcePoint" />
            <mxPoint x="840" y="280" as="targetPoint" />
          </mxGeometry>
        </mxCell>
        <mxCell id="8I4E7v-2J1x1jOvSFPSF-132" value="Use" style="endArrow=open;endSize=12;dashed=1;html=1;rounded=0;entryX=0.685;entryY=0.036;entryDx=0;entryDy=0;entryPerimeter=0;exitX=0.039;exitY=1.077;exitDx=0;exitDy=0;exitPerimeter=0;" edge="1" parent="WIyWlLk6GJQsqaUBKTNV-1" source="8I4E7v-2J1x1jOvSFPSF-14" target="8I4E7v-2J1x1jOvSFPSF-64">
          <mxGeometry width="160" relative="1" as="geometry">
            <mxPoint x="392" y="-50" as="sourcePoint" />
            <mxPoint x="-230" y="58" as="targetPoint" />
          </mxGeometry>
        </mxCell>
        <mxCell id="8I4E7v-2J1x1jOvSFPSF-133" value="Use" style="endArrow=open;endSize=12;dashed=1;html=1;rounded=0;exitX=0.006;exitY=-0.144;exitDx=0;exitDy=0;exitPerimeter=0;" edge="1" parent="WIyWlLk6GJQsqaUBKTNV-1" source="8I4E7v-2J1x1jOvSFPSF-6" target="8I4E7v-2J1x1jOvSFPSF-8">
          <mxGeometry width="160" relative="1" as="geometry">
            <mxPoint x="190" y="-181" as="sourcePoint" />
            <mxPoint x="459" y="192" as="targetPoint" />
          </mxGeometry>
        </mxCell>
        <mxCell id="8I4E7v-2J1x1jOvSFPSF-134" value="Use" style="endArrow=open;endSize=12;dashed=1;html=1;rounded=0;exitX=1;exitY=0.5;exitDx=0;exitDy=0;entryX=-0.014;entryY=0.125;entryDx=0;entryDy=0;entryPerimeter=0;" edge="1" parent="WIyWlLk6GJQsqaUBKTNV-1" source="8I4E7v-2J1x1jOvSFPSF-6" target="8I4E7v-2J1x1jOvSFPSF-25">
          <mxGeometry width="160" relative="1" as="geometry">
            <mxPoint x="827" y="-366" as="sourcePoint" />
            <mxPoint x="557" y="-275" as="targetPoint" />
          </mxGeometry>
        </mxCell>
        <mxCell id="8I4E7v-2J1x1jOvSFPSF-135" value="VarinhaGato" style="swimlane;fontStyle=1;align=center;verticalAlign=top;childLayout=stackLayout;horizontal=1;startSize=26;horizontalStack=0;resizeParent=1;resizeParentMax=0;resizeLast=0;collapsible=1;marginBottom=0;whiteSpace=wrap;html=1;" vertex="1" parent="WIyWlLk6GJQsqaUBKTNV-1">
          <mxGeometry x="40" y="50" width="120" height="34" as="geometry" />
        </mxCell>
        <mxCell id="8I4E7v-2J1x1jOvSFPSF-136" value="" style="line;strokeWidth=1;fillColor=none;align=left;verticalAlign=middle;spacingTop=-1;spacingLeft=3;spacingRight=3;rotatable=0;labelPosition=right;points=[];portConstraint=eastwest;strokeColor=inherit;" vertex="1" parent="8I4E7v-2J1x1jOvSFPSF-135">
          <mxGeometry y="26" width="120" height="8" as="geometry" />
        </mxCell>
        <mxCell id="8I4E7v-2J1x1jOvSFPSF-137" value="Extends" style="endArrow=block;endSize=16;endFill=0;html=1;rounded=0;exitX=0.569;exitY=0.066;exitDx=0;exitDy=0;exitPerimeter=0;" edge="1" parent="WIyWlLk6GJQsqaUBKTNV-1" source="8I4E7v-2J1x1jOvSFPSF-135" target="8I4E7v-2J1x1jOvSFPSF-64">
          <mxGeometry width="160" relative="1" as="geometry">
            <mxPoint x="248" y="58" as="sourcePoint" />
            <mxPoint x="339" y="-10" as="targetPoint" />
          </mxGeometry>
        </mxCell>
        <mxCell id="8I4E7v-2J1x1jOvSFPSF-138" value="CaixaFerramenta" style="swimlane;fontStyle=1;align=center;verticalAlign=top;childLayout=stackLayout;horizontal=1;startSize=26;horizontalStack=0;resizeParent=1;resizeParentMax=0;resizeLast=0;collapsible=1;marginBottom=0;whiteSpace=wrap;html=1;" vertex="1" parent="WIyWlLk6GJQsqaUBKTNV-1">
          <mxGeometry x="690" y="250" width="120" height="34" as="geometry" />
        </mxCell>
        <mxCell id="8I4E7v-2J1x1jOvSFPSF-139" value="" style="line;strokeWidth=1;fillColor=none;align=left;verticalAlign=middle;spacingTop=-1;spacingLeft=3;spacingRight=3;rotatable=0;labelPosition=right;points=[];portConstraint=eastwest;strokeColor=inherit;" vertex="1" parent="8I4E7v-2J1x1jOvSFPSF-138">
          <mxGeometry y="26" width="120" height="8" as="geometry" />
        </mxCell>
        <mxCell id="8I4E7v-2J1x1jOvSFPSF-140" value="Extends" style="endArrow=block;endSize=16;endFill=0;html=1;rounded=0;exitX=0.673;exitY=0.051;exitDx=0;exitDy=0;exitPerimeter=0;" edge="1" parent="WIyWlLk6GJQsqaUBKTNV-1" source="8I4E7v-2J1x1jOvSFPSF-138" target="8I4E7v-2J1x1jOvSFPSF-93">
          <mxGeometry width="160" relative="1" as="geometry">
            <mxPoint x="800" y="211" as="sourcePoint" />
            <mxPoint x="735" y="140" as="targetPoint" />
          </mxGeometry>
        </mxCell>
      </root>
    </mxGraphModel>
  </diagram>
</mxfile>
